<svg xmlns="http://www.w3.org/2000/svg" xmlns:xlink="http://www.w3.org/1999/xlink" viewBox="0 0 743.96 238.71"><defs><style>.cls-1,.cls-2,.cls-3,.cls-4{fill:url(#New_Gradient_Swatch);}.cls-2{clip-path:url(#clip-path);}.cls-3{clip-path:url(#clip-path-2);}.cls-4{clip-path:url(#clip-path-3);}.cls-5{isolation:isolate;}.cls-6{fill:#289bc9;}.cls-7{fill:#6dc6e9;}.cls-8{fill:#a7a9ac;}.cls-31,.cls-8{mix-blend-mode:color-burn;}.cls-9{opacity:0.75;mix-blend-mode:multiply;}.cls-10{fill:#7fa5a1;}.cls-11{fill:#fff;}.cls-12{fill:#6ec7ea;}.cls-13{fill:#d8c617;}.cls-14{fill:#f8df57;}.cls-15{fill:#a8a8a8;}.cls-16{fill:none;}.cls-17{fill:#fae98e;}.cls-18{fill:#32dcc1;}.cls-19{fill:url(#New_Gradient_Swatch-6);}.cls-20{fill:url(#New_Gradient_Swatch-7);}.cls-21{fill:#edc1c7;}.cls-22{fill:#d6c150;}.cls-23{fill:#dc9085;}.cls-24{fill:#fca588;}.cls-25{fill:#d97053;}.cls-26{fill:#fb7a52;}.cls-27{fill:#f4e550;}.cls-28,.cls-31{fill:#a9a9a9;}.cls-29{fill:#aee08d;}.cls-30{fill:#4e4e4e;}</style><radialGradient id="New_Gradient_Swatch" cx="538.11" cy="-57.24" r="210.68" gradientUnits="userSpaceOnUse"><stop offset="0" stop-color="#855cb3"/><stop offset="0.24" stop-color="#f550f5"/><stop offset="0.44" stop-color="#f3c8cd"/><stop offset="0.6" stop-color="#dba8ae"/><stop offset="0.81" stop-color="#a6749d"/><stop offset="1" stop-color="#875db1"/></radialGradient><clipPath id="clip-path"><path class="cls-1" d="M731.39,66S728.52,60.5,717,56.12c0,0,18.31-9.49,13.62-21.11a13.3,13.3,0,0,0-9.09-7.63c-8.33-2.18-26.63-4.79-33.26,11.84,0,0-3.53,11.6,11.68,18.28,0,0,.92.69-2.08,2.31s-16.14,12.9-10.37,23.5,24.18,8.2,29,7.37C724.6,89.3,740.57,79.29,731.39,66ZM699.49,43c-1.16-8.54,3.22-10.12,10.46-10.58s9.58,5.07,9.58,5.07c3.61,9.55-4.58,14.39-7.39,15.73a2.63,2.63,0,0,1-1.87.15C707.62,52.59,700.42,49.92,699.49,43ZM711.7,84.69c-8.07.92-12.67-1.61-14.52-8.29s8.76-15.9,8.76-15.9,15.21,4.84,15.9,12.21S719.76,83.77,711.7,84.69Z"/></clipPath><clipPath id="clip-path-2"><path class="cls-2" d="M503.29,24.93s-28.83-1.71-28.52,34.42c0,0-2.47,29.69,21.39,31.16,25.12,1.55,31.17-12.4,32.87-26.05S533.06,24.77,503.29,24.93ZM518.51,67a16.21,16.21,0,0,1-32.41,0V48.52a16.21,16.21,0,0,1,32.41,0Z"/></clipPath><clipPath id="clip-path-3"><path class="cls-3" d="M402.87,81.73c-1.71.73-8.56,2.9-29.34,3.09a.27.27,0,0,1-.27-.26V60.1a.27.27,0,0,1,.26-.27h23a1.4,1.4,0,0,0,1.4-1.4V55.32a1.4,1.4,0,0,0-1.4-1.39H373.42a.26.26,0,0,1-.26-.27V33.56a.26.26,0,0,1,.26-.27h9.79c12,.16,16.25,2,17.64,2.83a.7.7,0,0,0,1-.3,16.25,16.25,0,0,0,1.47-5.12c.31-3.21-3-4-3-4H358.07a1.3,1.3,0,0,0-1.29,1.3v2.69a1.3,1.3,0,0,0,1.29,1.3H362V86h-3.89a1.3,1.3,0,0,0-1.29,1.3v2.07a1.3,1.3,0,0,0,1.29,1.3H400s7.84.4,3.58-8.62A.56.56,0,0,0,402.87,81.73Z"/></clipPath><clipPath id="clip-path-4"><path class="cls-4" d="M464.84,26.69H451.27s-5.34-.62-4.12,3.89l.3,1.4,4.58-.16L440,63.48a.22.22,0,0,1-.41,0L426.09,32s6.41.85,4.32-4.5a1.23,1.23,0,0,0-1.12-.79H412.21s-3.76-.33-2.77,4.6a.9.9,0,0,0,.86.74H414l19,37.42a3.64,3.64,0,0,1,.38,1.62V85.91H427.7a1.28,1.28,0,0,0-1.26,1.33l.06,2a1.46,1.46,0,0,0,1.44,1.42h22.87s2.13-1,0-5c0,0-4,.39-6.55.46a.62.62,0,0,1-.62-.63l.14-14.38a5.27,5.27,0,0,1,.5-2.18L462,31.67l2.95-.11A1.54,1.54,0,0,0,466.37,30V28.25A1.54,1.54,0,0,0,464.84,26.69Z"/></clipPath><radialGradient id="New_Gradient_Swatch-6" cx="683.63" cy="79.29" r="155.99" xlink:href="#New_Gradient_Swatch"/><radialGradient id="New_Gradient_Swatch-7" cx="683.64" cy="79.29" r="156" xlink:href="#New_Gradient_Swatch"/></defs><title>Asset 1</title><g class="cls-5"><g id="Layer_2" data-name="Layer 2"><g id="Layer_2-2" data-name="Layer 2"><rect class="cls-6" x="87.02" y="157.95" width="45.33" height="27.36"/><rect class="cls-7" x="52.89" y="185.31" width="113.59" height="9.38" rx="1.21"/><rect class="cls-8" x="55.76" y="185.31" width="41" height="9.38"/><g class="cls-9"><path class="cls-10" d="M216,20.34V146.1a4.69,4.69,0,0,1-4.75,4.62H19.65a4.69,4.69,0,0,1-4.75-4.62V20.34a4.69,4.69,0,0,1,4.75-4.62H211.2A4.69,4.69,0,0,1,216,20.34Z"/></g><path class="cls-11" d="M213.12,20.34V146.1a4.69,4.69,0,0,1-4.76,4.62H16.82a4.69,4.69,0,0,1-4.76-4.62V20.34a4.69,4.69,0,0,1,4.76-4.62H208.36A4.69,4.69,0,0,1,213.12,20.34Z"/><g class="cls-9"><path class="cls-10" d="M215,.31H18A15.15,15.15,0,0,0,2.83,15.41V151A15.14,15.14,0,0,0,18,166.13H215A15.12,15.12,0,0,0,230.18,151V15.41A15.13,15.13,0,0,0,215,.31ZM214.7,146.1a4.64,4.64,0,0,1-4.65,4.62H23a4.64,4.64,0,0,1-4.64-4.62V20.34A4.64,4.64,0,0,1,23,15.72H210.05a4.64,4.64,0,0,1,4.65,4.62Z"/></g><path class="cls-12" d="M212.18.31h-197A15.15,15.15,0,0,0,0,15.41V151a15.14,15.14,0,0,0,15.18,15.09h197A15.13,15.13,0,0,0,227.35,151V15.41A15.13,15.13,0,0,0,212.18.31Zm-.31,145.79a4.64,4.64,0,0,1-4.66,4.62H20.14a4.64,4.64,0,0,1-4.64-4.62V20.34a4.64,4.64,0,0,1,4.64-4.62H207.21a4.64,4.64,0,0,1,4.66,4.62Z"/><rect class="cls-13" x="27.34" y="171.51" width="37.26" height="43.54"/><rect class="cls-14" x="31.13" y="171.51" width="24.63" height="43.54"/><rect class="cls-13" x="43.25" y="210.14" width="37.25" height="7.22"/><rect class="cls-14" x="47.29" y="210.14" width="24.61" height="7.22"/><rect class="cls-13" x="12.06" y="222.58" width="37.56" height="8.14"/><rect class="cls-14" x="15.24" y="222.58" width="24.19" height="8.14"/><rect class="cls-15" x="67.37" y="79.82" width="92.6" height="6.79" rx="0.79" transform="translate(9.77 178.36) rotate(-78.69)"/><path class="cls-15" d="M86.59,40.74A17.39,17.39,0,1,0,104,58.13,17.4,17.4,0,0,0,86.59,40.74Zm0,27.55A10.16,10.16,0,1,1,96.76,58.13,10.16,10.16,0,0,1,86.59,68.29Z"/><path class="cls-15" d="M141,89.14a17.39,17.39,0,1,0,17.39,17.39A17.39,17.39,0,0,0,141,89.14Zm0,27.55a10.16,10.16,0,1,1,10.17-10.16A10.16,10.16,0,0,1,141,116.69Z"/><line class="cls-16" x1="125.2" y1="171.51" x2="123.56" y2="166.03"/><path class="cls-8" d="M121.73,166.13H15.19A15.16,15.16,0,0,1,0,151V15.12A15.16,15.16,0,0,1,15.19,0H72.07Z"/><path class="cls-17" d="M145.63,76.7H260.5l4.83,145.37H139.68l5-144.47A.92.92,0,0,1,145.63,76.7Z"/><path class="cls-14" d="M235.44,222.07H139.68l5-144.46a.94.94,0,0,1,.91-.91h45Z"/><path class="cls-18" d="M231.43,84.17a3.24,3.24,0,0,1,3.19,3.27v15.23a33.26,33.26,0,0,1-6.37,19.66h0a31.67,31.67,0,0,1-51.48,0,33.26,33.26,0,0,1-6.37-19.66V87.43a3.23,3.23,0,0,1,3.19-3.26h0a3.23,3.23,0,0,1,3.18,3.26v14.11c0,14.29,10.84,26.46,24.79,27,14.64.54,26.69-11.46,26.69-26.34V87.44a3.24,3.24,0,0,1,3.19-3.27Z"/><path class="cls-19" d="M603.79,160.84c-5.42-2.19-6.21-4.15-6.21-8.42s5.4-5.64,5.4-5.64a22.92,22.92,0,0,1,16.13,3.34c2.54-2.07,2-4.37,2-4.37-.46-5.65-14.73-5.43-22.58-3-8.18,2.53-9.33,9.68-8.18,16.24s11.64,9,15.87,10.72,8.16,2.48,9.13,8.18c.81,4.72-3.92,6.34-3.92,6.34-10.83,2.89-20.5-2.31-20.5-2.31-4.5,7.72,3.45,8.41,4.14,8.64s15.79,1.38,21.43-2.07,7.49-9.68,5.76-16.48S609.2,163,603.79,160.84Z"/><path class="cls-20" d="M664.79,186.18h-2a.64.64,0,0,1-.66-.65c0-3.16.09-17,0-22-.11-5.76-2.82-7.61-9-8.18-4.67-.43-9,1.95-10.84,3.17a.63.63,0,0,1-1-.53v-15c0-2.59-1.73-2.65-1.73-2.65h-8.4a1.22,1.22,0,0,0-1.11.63c-.64,1.29.52,3.12.52,3.12,3.69.11,3.52,4.66,3.52,4.66v37.53a.61.61,0,0,1-.61.61h-2.63a1,1,0,0,0-1,1v1.3a1,1,0,0,0,1,1h13.49a1.33,1.33,0,0,0,1.33-1.32v-1a1.33,1.33,0,0,0-1.33-1.33h-2.25a.68.68,0,0,1-.69-.68c0-2.14-.07-8.95-.17-14.7-.11-6.91,1.44-11.23,8.07-10.94s5.64,9.85,5.64,9.85v19.12a1,1,0,0,0,1,1h7.6a2.19,2.19,0,0,0,2.19-2.19v-.8A.93.93,0,0,0,664.79,186.18Z"/><path class="cls-19" d="M737.09,155.85a18.81,18.81,0,0,0-18.21,2.38v-1.76a1.05,1.05,0,0,0-1.15-1.06l-7.45.65a1.1,1.1,0,0,0-1,1.09V158a1.07,1.07,0,0,0,1,1.06c1.25.15,3.25,1,3.25,4.85v38.33h-3.08a1.15,1.15,0,0,0-1.15,1.15v1.15a1.15,1.15,0,0,0,1.15,1.15H724.8a1.15,1.15,0,0,0,1.15-1.15v-1.07a1.16,1.16,0,0,0-1.15-1.16h-3.38a.85.85,0,0,1-.85-.84V189.7a.31.31,0,0,1,.45-.28,15.24,15.24,0,0,0,6.7,1.6c3.84-.07,12.82-1.53,15.2-12.59S743.69,158.38,737.09,155.85Zm-9.22,30.56c-6.68.23-7.14-2.15-7.14-2.15V165.68s1.38-5.92,6.76-6.07,8.29,2.84,8.37,12.33S734.55,186.18,727.87,186.41Z"/><path class="cls-19" d="M688,154.79s-15.89-.94-15.72,19c0,0-1.36,16.37,11.79,17.18,13.85.86,17.18-6.83,18.12-14.36S704.45,154.7,688,154.79Zm8.39,23.2a8.93,8.93,0,1,1-17.86,0V167.8a8.93,8.93,0,1,1,17.86,0Z"/><path class="cls-1" d="M731.39,66S728.52,60.5,717,56.12c0,0,18.31-9.49,13.62-21.11a13.3,13.3,0,0,0-9.09-7.63c-8.33-2.18-26.63-4.79-33.26,11.84,0,0-3.53,11.6,11.68,18.28,0,0,.92.69-2.08,2.31s-16.14,12.9-10.37,23.5,24.18,8.2,29,7.37C724.6,89.3,740.57,79.29,731.39,66ZM699.49,43c-1.16-8.54,3.22-10.12,10.46-10.58s9.58,5.07,9.58,5.07c3.61,9.55-4.58,14.39-7.39,15.73a2.63,2.63,0,0,1-1.87.15C707.62,52.59,700.42,49.92,699.49,43ZM711.7,84.69c-8.07.92-12.67-1.61-14.52-8.29s8.76-15.9,8.76-15.9,15.21,4.84,15.9,12.21S719.76,83.77,711.7,84.69Z"/><path class="cls-1" d="M503.29,24.93s-28.83-1.71-28.52,34.42c0,0-2.47,29.69,21.39,31.16,25.12,1.55,31.17-12.4,32.87-26.05S533.06,24.77,503.29,24.93ZM518.51,67a16.21,16.21,0,0,1-32.41,0V48.52a16.21,16.21,0,0,1,32.41,0Z"/><path class="cls-1" d="M402.87,81.73c-1.71.73-8.56,2.9-29.34,3.09a.27.27,0,0,1-.27-.26V60.1a.27.27,0,0,1,.26-.27h23a1.4,1.4,0,0,0,1.4-1.4V55.32a1.4,1.4,0,0,0-1.4-1.39H373.42a.26.26,0,0,1-.26-.27V33.56a.26.26,0,0,1,.26-.27h9.79c12,.16,16.25,2,17.64,2.83a.7.7,0,0,0,1-.3,16.25,16.25,0,0,0,1.47-5.12c.31-3.21-3-4-3-4H358.07a1.3,1.3,0,0,0-1.29,1.3v2.69a1.3,1.3,0,0,0,1.29,1.3H362V86h-3.89a1.3,1.3,0,0,0-1.29,1.3v2.07a1.3,1.3,0,0,0,1.29,1.3H400s7.84.4,3.58-8.62A.56.56,0,0,0,402.87,81.73Z"/><path class="cls-1" d="M464.84,26.69H451.27s-5.34-.62-4.12,3.89l.3,1.4,4.58-.16L440,63.48a.22.22,0,0,1-.41,0L426.09,32s6.41.85,4.32-4.5a1.23,1.23,0,0,0-1.12-.79H412.21s-3.76-.33-2.77,4.6a.9.9,0,0,0,.86.74H414l19,37.42a3.64,3.64,0,0,1,.38,1.62V85.91H427.7a1.28,1.28,0,0,0-1.26,1.33l.06,2a1.46,1.46,0,0,0,1.44,1.42h22.87s2.13-1,0-5c0,0-4,.39-6.55.46a.62.62,0,0,1-.62-.63l.14-14.38a5.27,5.27,0,0,1,.5-2.18L462,31.67l2.95-.11A1.54,1.54,0,0,0,466.37,30V28.25A1.54,1.54,0,0,0,464.84,26.69Z"/><path class="cls-1" d="M595.66,86.76c-6.29-.38-8.8-9-9-9.71a.49.49,0,0,0,0-.11c-5.92-14-12.27-15.61-14.23-15.75H574l.24,0c12.92-3.58,16.4-10.69,14.29-21.67-2.48-12.9-18.75-12-18.75-12s-21.39.17-26,0c-3.66-.14-3.19,3.12-2.82,4.51a.81.81,0,0,0,.79.62h3.86a.82.82,0,0,1,.82.81l.75,52.38a.83.83,0,0,1-.83.84c-.61,0-1.67,0-3.5.06-3.41.12-2.78,2.88-2.36,4a.81.81,0,0,0,.75.52c3.13,0,19.11.21,21.76,0,2.25-.18,2-2.93,1.71-4.22a.83.83,0,0,0-.81-.66h-5.2a.82.82,0,0,1-.82-.81l-.14-20a.81.81,0,0,1,.68-.82c2.86-.47,13.82-1.23,17.75,13.62C580.29,94.2,586.7,93,590.57,93A12.1,12.1,0,0,0,596,91.57a.81.81,0,0,0,.43-.72V87.59A.81.81,0,0,0,595.66,86.76ZM558,58.65a.82.82,0,0,1-.73-.82V36.12a.82.82,0,0,1,.72-.81c3.52-.42,18.75-1.49,19.12,11.67S561.64,59.07,558,58.65Z"/><path class="cls-1" d="M673.14,85.74c-1.41.11-2.85.06-4.26.09-.47-.1-1-.08-1.29-.46V76.6c.41-1.08,1.5-1.15,4.34-1.31.38,0,.76-.12,1.16-.16,0,0,.13-.29.3-.71a4.92,4.92,0,0,0,.55-1.66c.66-2.4-.38-3.66-2.86-3.68-1.34,0-2.69-.09-4-.13,0-3.31-.09-6.63.1-9.93.25-4.47-.47-9,.25-13.43,0-1.86-.44-3.73,0-5.6a67.45,67.45,0,0,1-.29-9.21c0-1.15.35-2.37-.55-3.37-.1-.93-.87-1-1.52-1.18-.86-.1-1.72-.15-2.58-.27a12.18,12.18,0,0,0-3.28-.1S656.29,24.7,652.8,31c-2.88,4.28-5.77,8.57-8.66,12.83a2.35,2.35,0,0,0,.19.25l-.1.14c0-.13-.07-.25-.09-.39L640.61,49v0s0,0,0,0,0,.26.08.39l-.18.27c0-.21.05-.42.08-.64a69.35,69.35,0,0,0-5.19,7.64,7.37,7.37,0,0,0-1.87,2.84,1.27,1.27,0,0,1,.18.06l-.07.11-.11-.17a24.76,24.76,0,0,0-3.68,5.3l.32-.12-.07.1-.25,0-.63.94c-.43.65-.86,1.3-1.28,2h.13l0,.05L628,67.7a6.12,6.12,0,0,0-.51.93h0c-.94,2.09-.6,4.27,0,6.46a1,1,0,0,1,.38.24l1.16,0h0l11.11-.11h3l0,0h0l0,0c1.1.07,2.2.12,3.3.17h3.82a1.77,1.77,0,0,1,.28-.27l6.52-.06.16,9.85a1.29,1.29,0,0,0-.21-.06c-.19,1.2-1.13.88-1.86.89-1.91,0-3.81,0-5.72,0-1.39,0-2.2.94-1.88,2.16.26,1-.27,2.74,2,2.69,7.85-.16,15.72-.11,23.59-.15a2,2,0,0,0-.59-.6h.12l.25,0a4.05,4.05,0,0,1,.22.62c2.38.23,1.88-1.5,2-2.86S674.57,85.63,673.14,85.74ZM657,67.66a1.39,1.39,0,0,1-1.39,1.39h-17.2a.53.53,0,0,1-.46-.81l18.54-30a.28.28,0,0,1,.51.15Z"/><rect class="cls-21" x="355" y="153.89" width="200.52" height="24.27"/><line class="cls-16" x1="190.67" y1="76.7" x2="189.4" y2="72.57"/><line class="cls-16" x1="245.64" y1="138.44" x2="244.09" y2="133.4"/><path class="cls-22" d="M143.17,147.46h30s7.38-2.31,7.38,9.67v58.53h32.26V222H143.17Z"/><path class="cls-23" d="M294.84,237.85a.38.38,0,0,1-.37.38H209a.36.36,0,0,1-.35-.38.37.37,0,0,0,.36.37h67.18l-2-6.49h20.44Z"/><path class="cls-24" d="M294.64,231.73H208.87l3.2-92.34a.9.9,0,0,1,.19-.53.47.47,0,0,1,.13-.15,1,1,0,0,1,.7-.27h78.1a.34.34,0,0,1,.35.35Z"/><path class="cls-25" d="M276.19,238.22H209a.37.37,0,0,1-.36-.37l.22-6.12H274.2Z"/><path class="cls-26" d="M274.2,231.73H208.87l3.2-92.34a.9.9,0,0,1,.19-.53.47.47,0,0,1,.13-.15,1,1,0,0,1,.7-.27h32.4Z"/><path class="cls-27" d="M271.74,146.75a3.92,3.92,0,0,0-4,3.86v9.48a14.72,14.72,0,0,1-4.59,10.65,16.57,16.57,0,0,1-12.05,4.55,16,16,0,0,1-15.45-15.61v-9.07a4,4,0,0,0-7.92,0v9.8a22.07,22.07,0,0,0,4.78,13.74,24.66,24.66,0,0,0,37.83.67l.55-.67a22.07,22.07,0,0,0,4.78-13.74v-9.8A3.92,3.92,0,0,0,271.74,146.75Z"/><rect class="cls-28" x="117.23" y="139.63" width="53.56" height="98.81" rx="3.29"/><rect class="cls-11" x="121.54" y="154.56" width="44.94" height="67.11" rx="1.25"/><path class="cls-29" d="M156.54,196.42a12.5,12.5,0,0,1-8.44,11.83v7.87h-8.18v-7.18h-4.08V200.5H144a4.09,4.09,0,0,0,0-8.17A12.53,12.53,0,0,1,139.92,168v-7.84h8.18v7.15h4.08v8.46H144a4.09,4.09,0,0,0,0,8.17,12.51,12.51,0,0,1,12.53,12.53Z"/><circle class="cls-30" cx="144.01" cy="230.32" r="3.88"/><path class="cls-31" d="M129.89,139.36h-5.22a7.49,7.49,0,0,0-7.44,7.55v84.26a7.49,7.49,0,0,0,7.44,7.54H160.4ZM144,234.2a3.88,3.88,0,1,1,3.88-3.88A3.88,3.88,0,0,1,144,234.2Z"/></g></g></g></svg>