<svg height="511pt" viewBox="-14 1 511 511.99998" width="511pt" xmlns="http://www.w3.org/2000/svg"><path d="m187.234375 158.222656c0 39.007813-31.621094 70.625-70.625 70.625s-70.625-31.617187-70.625-70.625c0-39.003906 31.621094-70.621094 70.625-70.621094s70.625 31.617188 70.625 70.621094zm0 0" fill="#fecc2e"/><path d="m116.609375 194.558594c-20.035156 0-36.335937-16.300782-36.335937-36.335938 0-20.03125 16.300781-36.332031 36.335937-36.332031 20.03125 0 36.332031 16.300781 36.332031 36.332031 0 20.035156-16.300781 36.335938-36.332031 36.335938zm0 0" fill="#fedd60"/><path d="m398.285156 70.625c0 39.003906-31.621094 70.625-70.625 70.625s-70.625-31.621094-70.625-70.625 31.621094-70.625 70.625-70.625 70.625 31.621094 70.625 70.625zm0 0" fill="#fecc2e"/><path d="m327.660156 106.957031c-20.035156 0-36.332031-16.300781-36.332031-36.332031 0-20.035156 16.296875-36.332031 36.332031-36.332031 20.03125 0 36.332032 16.296875 36.332032 36.332031 0 20.03125-16.300782 36.332031-36.332032 36.332031zm0 0" fill="#fedd60"/><path d="m411.300781 171.042969h-376.09375c-19.167969 0-34.707031 15.539062-34.707031 34.707031v271.542969c0 19.167969 15.539062 34.707031 34.707031 34.707031h376.09375c28.523438 0 51.644531-23.125 51.644531-51.648438v-237.660156c0-28.523437-23.121093-51.648437-51.644531-51.648437zm0 0" fill="#dc9f8c"/><path d="m49.488281 463.011719v-242.980469h346.136719c1.464844 0 2.660156 1.191406 2.660156 2.660156v237.660156c0 1.46875-1.195312 2.660157-2.660156 2.660157zm0 0" fill="#e9b9a5"/><g fill="#3a484a"><path d="m123.003906 352.414062c-4.269531 0-7.726562-3.460937-7.726562-7.726562v-13.574219c0-4.269531 3.457031-7.726562 7.726562-7.726562 4.269532 0 7.726563 3.457031 7.726563 7.726562v13.574219c0 4.265625-3.457031 7.726562-7.726563 7.726562zm0 0"/><path d="m273.015625 352.414062c-4.269531 0-7.726563-3.460937-7.726563-7.726562v-13.574219c0-4.269531 3.457032-7.726562 7.726563-7.726562 4.265625 0 7.726563 3.457031 7.726563 7.726562v13.574219c0 4.265625-3.460938 7.726562-7.726563 7.726562zm0 0"/><path d="m198.007812 359.65625c-9.445312 0-18.3125-3.945312-24.328124-10.832031-2.808594-3.210938-2.480469-8.09375.734374-10.902344 3.210938-2.808594 8.09375-2.476563 10.902344.734375 3.082032 3.527344 7.707032 5.546875 12.691406 5.546875 4.988282 0 9.613282-2.019531 12.695313-5.546875 2.808594-3.214844 7.6875-3.542969 10.902344-.734375 3.214843 2.808594 3.542969 7.691406.734375 10.902344-6.019532 6.886719-14.882813 10.832031-24.332032 10.832031zm0 0"/></g><path d="m462.945312 293.511719h-73.296874c-26.511719 0-48.007813 21.496093-48.007813 48.011719 0 26.511718 21.492187 48.007812 48.007813 48.007812h73.296874c11.507813 0 20.835938-9.328125 20.835938-20.835938v-54.347656c0-11.507812-9.328125-20.835937-20.835938-20.835937zm0 0" fill="#cc927b"/><path d="m389.648438 318.007812c12.964843 0 23.515624 10.550782 23.515624 23.515626 0 12.964843-10.550781 23.511718-23.515624 23.511718-12.964844 0-23.511719-10.546875-23.511719-23.511718 0-12.964844 10.546875-23.515626 23.511719-23.515626zm0 0" fill="#fedd60"/></svg>